<svg width="1600" height="900" viewBox="0 0 1600 900" fill="none" xmlns="http://www.w3.org/2000/svg">
  <rect width="1600" height="900" fill="#0F172A"/>
  <rect y="520" width="1600" height="380" fill="#111827"/>
  <path d="M0 620L250 420L430 560L680 320L930 520L1170 280L1600 620V900H0V620Z" fill="#1E293B"/>
  <path d="M150 600L370 430L500 520L770 300L980 450L1250 260L1450 390V900H150V600Z" fill="#334155"/>
  <rect x="1080" y="170" width="28" height="500" fill="#94A3B8"/>
  <rect x="780" y="210" width="24" height="430" fill="#64748B"/>
  <rect x="486" y="250" width="18" height="320" fill="#CBD5E1"/>
  <circle cx="1330" cy="170" r="54" fill="#B8876D" fill-opacity="0.9"/>
  <text x="110" y="160" fill="#E2E8F0" font-family="Arial, sans-serif" font-size="72" font-weight="700">
    Mandure Servicos
  </text>
  <text x="110" y="240" fill="#CBD5E1" font-family="Arial, sans-serif" font-size="34">
    Construcao civil, reformas e manutencao predial
  </text>
</svg>
