<?xml version="1.0" encoding="UTF-8"?>
<svg width="1600" height="1200" viewBox="0 0 1600 1200" fill="none" xmlns="http://www.w3.org/2000/svg" role="img" aria-labelledby="title desc">
  <title id="title">Reforma Completa Moema - Iluminacao cenario</title>
  <desc id="desc">Ilustracao conceitual da galeria do projeto Reforma Completa Moema, destacando iluminacao cenario.</desc>
  <defs>
    <linearGradient id="bg" x1="120" y1="60" x2="1480" y2="1140" gradientUnits="userSpaceOnUse">
      <stop stop-color="#F3F0EB"/>
      <stop offset="1" stop-color="#E0D8CD"/>
    </linearGradient>
    <linearGradient id="panel" x1="270" y1="220" x2="1260" y2="1010" gradientUnits="userSpaceOnUse">
      <stop stop-color="#FBF8F4"/>
      <stop offset="1" stop-color="#FFFFFF" stop-opacity="0.94"/>
    </linearGradient>
    <linearGradient id="hero" x1="930" y1="240" x2="1420" y2="930" gradientUnits="userSpaceOnUse">
      <stop stop-color="#B88C65"/>
      <stop offset="1" stop-color="#6F5B4B"/>
    </linearGradient>
  </defs>

  <rect width="1600" height="1200" rx="44" fill="url(#bg)"/>

  <path d="M0 965C190 930 250 840 430 840C610 840 645 935 840 935C1025 935 1090 840 1275 840C1430 840 1520 900 1600 920V1200H0V965Z" fill="#D8BFA8" fill-opacity="0.34"/>
  <path d="M0 1070C190 1020 280 970 460 990C640 1010 705 1120 890 1100C1100 1075 1240 970 1600 1020V1200H0V1070Z" fill="#FFFFFF" fill-opacity="0.3"/>

  <g opacity="0.65" stroke="#E7DDD4" stroke-width="2">
    <path d="M140 170H1460"/>
    <path d="M140 250H1460"/>
    <path d="M140 330H1460"/>
    <path d="M140 410H760"/>
    <path d="M140 1020H1460"/>
    <path d="M230 130V1070"/>
    <path d="M430 130V980"/>
    <path d="M630 130V950"/>
  </g>

  <rect x="170" y="150" width="1260" height="900" rx="40" fill="url(#panel)" stroke="#FFFFFF" stroke-opacity="0.8" stroke-width="3"/>
  <rect x="220" y="210" width="330" height="56" rx="28" fill="#FFFFFF" fill-opacity="0.86"/>
  <text x="255" y="247" fill="#6F5B4B" font-family="Arial, sans-serif" font-size="26" font-weight="700" letter-spacing="0.18em">REFORMA DE INTERIORES</text>

  <text x="220" y="365" fill="#36454F" font-family="Arial, sans-serif" font-size="68" font-weight="800">Reforma Completa Moema</text>
  <text x="220" y="430" fill="#6F5B4B" font-family="Arial, sans-serif" font-size="34" font-weight="600">Iluminacao cenario</text>
  <text x="220" y="500" fill="#6F5B4B" font-family="Arial, sans-serif" font-size="24">Galeria conceitual 07/10 para compartilhamento do modal responsivo.</text>

  <g>
    <rect x="915" y="220" width="420" height="560" rx="36" fill="url(#hero)"/>
    <rect x="960" y="350" width="160" height="360" rx="18" fill="#FFFFFF" fill-opacity="0.18"/>
    <rect x="1140" y="300" width="120" height="410" rx="18" fill="#FFFFFF" fill-opacity="0.16"/>
    <rect x="1000" y="420" width="90" height="250" rx="12" fill="#FFFFFF" fill-opacity="0.26"/>
    <rect x="1168" y="390" width="50" height="280" rx="10" fill="#FFFFFF" fill-opacity="0.24"/>
    <rect x="1040" y="314" width="110" height="110" rx="26" fill="#FFFFFF" fill-opacity="0.2"/>
    <circle cx="1235" cy="315" r="42" fill="#FFFFFF" fill-opacity="0.18"/>
    <path d="M965 715H1285" stroke="#FFFFFF" stroke-opacity="0.38" stroke-width="8" stroke-linecap="round"/>
  </g>

  <g>
    <rect x="220" y="610" width="610" height="300" rx="30" fill="#FFFFFF" fill-opacity="0.94" stroke="#E7DDD4" stroke-width="2"/>
    <rect x="265" y="655" width="180" height="180" rx="22" fill="#D8BFA8" fill-opacity="0.55"/>
    <path d="M295 785L350 710L390 750L440 690" stroke="#6F5B4B" stroke-width="16" stroke-linecap="round" stroke-linejoin="round"/>
    <rect x="490" y="670" width="280" height="22" rx="11" fill="#B88C65" fill-opacity="0.34"/>
    <rect x="490" y="715" width="225" height="18" rx="9" fill="#E7DDD4"/>
    <rect x="490" y="755" width="250" height="18" rx="9" fill="#E7DDD4"/>
    <rect x="490" y="795" width="190" height="18" rx="9" fill="#E7DDD4"/>
    <rect x="490" y="845" width="115" height="24" rx="12" fill="#B88C65"/>
  </g>

  <g>
    <rect x="915" y="820" width="420" height="90" rx="28" fill="#FFFFFF" fill-opacity="0.92"/>
    <circle cx="990" cy="865" r="26" fill="#B88C65" fill-opacity="0.18"/>
    <rect x="1040" y="845" width="210" height="16" rx="8" fill="#6F5B4B" fill-opacity="0.22"/>
    <rect x="1040" y="875" width="165" height="14" rx="7" fill="#E7DDD4"/>
  </g>

  <g opacity="0.9">
    <rect x="180" y="820" width="1240" height="3" fill="#E7DDD4"/>
    <rect x="180" y="960" width="1240" height="3" fill="#E7DDD4"/>
  </g>
</svg>